# xmcd
#
# Track frame offsets: 
#        150
#        18856
#        32680
#        45213
#        60394
#        73681
#        88288
#        100177
#        115437
#        150823
#
# Disc length: 2209 seconds
#
# Revision: 0
# Processed by: cddbd v1.4PL0 Copyright (c) Steve Scherf et al.
# Submitted via: ExactAudioCopy v0.95a3
#
DISCID=6f089f0a
DTITLE=Blues Brothers - Music From The Soundtrack
DYEAR=1982
DGENRE=Blues
TTITLE0=She Caught The Katy
TTITLE1=Gimme Some Lovin'
TTITLE2=Shake A Tailfeather
TTITLE3=Everybody Needs Somebody To Love
TTITLE4=The Old Landmark
TTITLE5=Think
TTITLE6=Theme From Rawhide
TTITLE7=Minnie The Moocher
TTITLE8=Sweet Home Chigago
TTITLE9=Jailhouse Rock
EXTD=
EXTT0=
EXTT1=
EXTT2=
EXTT3=
EXTT4=
EXTT5=
EXTT6=
EXTT7=
EXTT8=
EXTT9=
PLAYORDER=
